<svg xmlns="http://www.w3.org/2000/svg" viewBox="0 0 640 640" role="img" aria-labelledby="title desc">
  <title id="title">QR demo Infaq</title>
  <desc id="desc">Grafik demo untuk semakan paparan sahaja dan bukan kod pembayaran sebenar.</desc>
  <rect width="640" height="640" rx="48" fill="#ffffff"/>
  <rect x="24" y="24" width="592" height="592" rx="36" fill="none" stroke="#064e3b" stroke-width="12"/>
  <g fill="#064e3b">
    <rect x="76" y="76" width="152" height="152" rx="12"/>
    <rect x="100" y="100" width="104" height="104" rx="6" fill="#ffffff"/>
    <rect x="124" y="124" width="56" height="56" rx="4"/>
    <rect x="412" y="76" width="152" height="152" rx="12"/>
    <rect x="436" y="100" width="104" height="104" rx="6" fill="#ffffff"/>
    <rect x="460" y="124" width="56" height="56" rx="4"/>
    <rect x="76" y="412" width="152" height="152" rx="12"/>
    <rect x="100" y="436" width="104" height="104" rx="6" fill="#ffffff"/>
    <rect x="124" y="460" width="56" height="56" rx="4"/>
    <rect x="268" y="88" width="36" height="36"/>
    <rect x="328" y="88" width="36" height="84"/>
    <rect x="268" y="148" width="36" height="84"/>
    <rect x="328" y="196" width="84" height="36"/>
    <rect x="256" y="268" width="36" height="36"/>
    <rect x="304" y="256" width="84" height="36"/>
    <rect x="400" y="268" width="36" height="84"/>
    <rect x="448" y="256" width="84" height="36"/>
    <rect x="76" y="268" width="84" height="36"/>
    <rect x="172" y="256" width="36" height="96"/>
    <rect x="88" y="328" width="84" height="36"/>
    <rect x="256" y="328" width="84" height="36"/>
    <rect x="352" y="316" width="36" height="84"/>
    <rect x="412" y="376" width="36" height="84"/>
    <rect x="460" y="328" width="84" height="36"/>
    <rect x="268" y="412" width="36" height="84"/>
    <rect x="328" y="424" width="84" height="36"/>
    <rect x="316" y="484" width="36" height="84"/>
    <rect x="376" y="508" width="84" height="36"/>
    <rect x="472" y="412" width="36" height="84"/>
    <rect x="520" y="472" width="36" height="84"/>
  </g>
  <rect x="72" y="274" width="496" height="92" rx="18" fill="#ffffff" stroke="#b91c1c" stroke-width="8"/>
  <text x="320" y="315" text-anchor="middle" font-family="Arial, sans-serif" font-size="34" font-weight="700" fill="#b91c1c">DEMO SAHAJA</text>
  <text x="320" y="348" text-anchor="middle" font-family="Arial, sans-serif" font-size="22" font-weight="700" fill="#b91c1c">JANGAN BUAT BAYARAN</text>
</svg>
